<svg xmlns="http://www.w3.org/2000/svg" viewBox="0 0 512.13 153.05"><defs><style>.cls-1,.cls-11,.cls-12,.cls-5,.cls-6{fill:#fff;}.cls-2,.cls-3{fill:none;}.cls-2,.cls-5{opacity:0.7;}.cls-3{stroke:#f15a29;stroke-miterlimit:10;stroke-width:15px;}.cls-4{fill:#26a6df;opacity:0;}.cls-6{opacity:0.5;}.cls-7{fill:#231f20;}.cls-8{fill:#fcb216;}.cls-9{fill:#f8981d;}.cls-10{fill:#e76c24;}.cls-11{opacity:0.26;}.cls-12{opacity:0.65;}</style></defs><title>Asset 12gg</title><g id="Layer_2" data-name="Layer 2"><g id="Layer_1-2" data-name="Layer 1"><polygon class="cls-1" points="196.51 119.89 177.02 110.64 177.02 110.64 196.51 99.58 196.51 119.89"/><path class="cls-1" d="M6.42,128.46,42,76.8H10.48V57.08h62.9V70.52L37.77,122.18H74.52V141.9H6.42Z" transform="translate(-6.42 -26.15)"/><path class="cls-1" d="M223.37,61.22h20.5l1.81,8.34h.63c6.65-5.93,15.3-10.4,24.15-10.4,20.53,0,33.11,17,33.11,43.13,0,29.1-17.32,45.79-35.68,45.79-7.3,0-14.16-3.19-20.23-8.84l.84,13.41v24.86H223.37Zm54.44,41.35c0-15.22-4.7-22.84-14.73-22.84-5.17,0-9.62,2.31-14.58,7.6v34.82A20.24,20.24,0,0,0,262,127.52C270.79,127.52,277.81,120.12,277.81,102.57Z" transform="translate(-6.42 -26.15)"/><path class="cls-1" d="M315.35,119.68V26.26h25.13V120.7c0,5.39,2.49,7.1,4.55,7.1a11,11,0,0,0,3.07-.34l3,18.53c-2.78,1.19-6.9,2.09-12.62,2.09C321.24,148.08,315.35,136.84,315.35,119.68Z" transform="translate(-6.42 -26.15)"/><path class="cls-1" d="M357.06,177.49l4.46-19.16a25.57,25.57,0,0,0,5.71,1.09c8.29,0,12.65-4.57,14.84-11.14l1.27-4.42L350.62,61.22h25.25L388,97.71c2.46,7.69,4.47,15.73,6.7,24h.68c1.89-8,3.78-16.07,5.9-24l10.29-36.49h24.06L406.18,147c-8.05,21.25-17.1,32.25-37,32.25A39.17,39.17,0,0,1,357.06,177.49Z" transform="translate(-6.42 -26.15)"/><path class="cls-1" d="M438.35,103.65c0-27.73,17.32-44.49,35.18-44.49,9.35,0,15.06,3.48,20.79,8.85l-.9-12.85V26.26h25.13V146H498l-1.81-8.4h-.62c-6,6-14.38,10.45-22.56,10.45C452,148.08,438.35,131.35,438.35,103.65Zm55.07,16.27V85.09a20.57,20.57,0,0,0-14-5.36c-8.14,0-15.27,7.51-15.27,23.64,0,16.65,5.75,24.15,15.48,24.15C484.93,127.52,489.26,125.49,493.42,119.92Z" transform="translate(-6.42 -26.15)"/><polygon class="cls-2" points="88.93 37.47 140.85 7.5 192.77 37.47 192.77 97.42 140.85 127.39 88.93 97.42 88.93 37.47"/><line class="cls-3" x1="192.77" y1="7.5" x2="192.77" y2="7.5"/><polygon class="cls-4" points="130.87 61.69 119.89 70.37 86.94 51.35 88.93 37.47 130.87 61.69"/><path class="cls-4" d="M147.2,141.9c-2.69-.85-14.79-4.4-17.68-5.09l0-33,17.65-10.26Z" transform="translate(-6.42 -26.15)"/><polygon class="cls-5" points="140.87 131.7 140.87 109.19 177.02 88.17 196.51 99.58 140.87 131.7"/><polygon class="cls-1" points="196.51 99.58 177.02 88.17 177.02 46.91 196.48 35.32 196.51 99.58"/><polygon class="cls-6" points="85.22 99.58 104.66 88.45 140.87 109.19 140.87 131.7 85.22 99.58"/><polygon class="cls-7" points="109.54 49.45 140.72 31.45 171.9 49.45 171.9 85.45 140.72 103.45 109.54 85.45 109.54 49.45"/><polygon class="cls-8" points="140.72 67.45 109.54 49.45 140.72 31.45 171.9 49.45 140.72 67.45"/><polygon class="cls-9" points="140.72 103.45 109.54 85.45 109.54 49.45 140.72 67.45 140.72 103.45"/><polygon class="cls-10" points="171.9 85.45 140.72 103.45 140.72 67.45 171.9 49.45 171.9 85.45"/><polygon class="cls-11" points="104.66 88.45 85.22 99.58 85.22 35.32 104.63 46.54 104.66 88.45"/><polygon class="cls-12" points="156.33 40.46 125.07 58.41 123.47 57.49 154.65 39.49 156.33 40.46"/><polygon class="cls-12" points="125.15 58.41 125.06 68.42 123.47 67.7 123.47 57.49 125.15 58.41"/></g></g></svg>