<?xml version="1.0"?>
<svg xmlns="http://www.w3.org/2000/svg" xmlns:xlink="http://www.w3.org/1999/xlink" xmlns:svgjs="http://svgjs.com/svgjs" version="1.1" width="256" height="256" x="0" y="0" viewBox="0 0 24 24" style="enable-background:new 0 0 512 512" xml:space="preserve"><g><path d="M19,17a5.994,5.994,0,0,1-3-.806A5.994,5.994,0,0,1,13,17H11a5.938,5.938,0,0,1-3-.818A5.936,5.936,0,0,1,5,17H4a5.949,5.949,0,0,1-3-.813V21a3,3,0,0,0,3,3H20a3,3,0,0,0,3-3V16.188A5.958,5.958,0,0,1,20,17Z" fill="#ced0d3" data-original="#000000"/><path d="M17,0V6H15V0H9V6H7V0H2.2L.024,9.783,0,11a4,4,0,0,0,4,4H5a3.975,3.975,0,0,0,3-1.382A3.975,3.975,0,0,0,11,15h2a3.99,3.99,0,0,0,3-1.357A3.99,3.99,0,0,0,19,15h1a4,4,0,0,0,4-4V10L21.8,0Z" fill="#ced0d3" data-original="#000000"/></g></svg>
