<?xml version="1.0"?>
<svg xmlns="http://www.w3.org/2000/svg" xmlns:xlink="http://www.w3.org/1999/xlink" xmlns:svgjs="http://svgjs.com/svgjs" version="1.1" width="256" height="256" x="0" y="0" viewBox="0 0 24 24" style="enable-background:new 0 0 512 512" xml:space="preserve"><g><path d="m7.5 13a4.5 4.5 0 1 1 4.5-4.5 4.505 4.505 0 0 1 -4.5 4.5zm6.5 11h-13a1 1 0 0 1 -1-1v-.5a7.5 7.5 0 0 1 15 0v.5a1 1 0 0 1 -1 1zm3.5-15a4.5 4.5 0 1 1 4.5-4.5 4.505 4.505 0 0 1 -4.5 4.5zm-1.421 2.021a6.825 6.825 0 0 0 -4.67 2.831 9.537 9.537 0 0 1 4.914 5.148h6.677a1 1 0 0 0 1-1v-.038a7.008 7.008 0 0 0 -7.921-6.941z" fill="#ced0d3" data-original="#000000"/></g></svg>
